<?xml version="1.0" encoding="UTF-8"?>
<svg width="752pt" height="752pt" version="1.1" viewBox="0 0 752 752" xmlns="http://www.w3.org/2000/svg">
 <defs>
  <clipPath id="f">
   <path d="m218 195h320v229h-320z"/>
  </clipPath>
  <clipPath id="e">
   <path d="m208.56 85.992 457.45 122.57-122.57 457.45-457.45-122.57z"/>
  </clipPath>
  <clipPath id="d">
   <path d="m191 346h346v152h-346z"/>
  </clipPath>
  <clipPath id="c">
   <path d="m208.56 85.992 457.45 122.57-122.57 457.45-457.45-122.57z"/>
  </clipPath>
  <clipPath id="b">
   <path d="m132 301h463v253h-463z"/>
  </clipPath>
  <clipPath id="a">
   <path d="m208.56 85.992 457.45 122.57-122.57 457.45-457.45-122.57z"/>
  </clipPath>
 </defs>
 <g>
  <g clip-path="url(#f)">
   <g clip-path="url(#e)">
    <path d="m367.73 406.92c88.406 23.688 153.56 18.773 169.67 4.6055 0.57422-67.324-6.3281-166.98-51.426-179.07-17.668-4.7344-33.031 3.6719-46.605 11.086-11.383 6.2031-21.168 11.609-30.32 9.1602-9.1484-2.4531-14.938-12.031-21.676-23.09-8.043-13.207-17.148-28.172-34.82-32.906-44.98-12.055-100.59 70.289-134.03 129.52 7.0898 20.344 61.051 57.07 149.2 80.691z"/>
   </g>
  </g>
  <g clip-path="url(#d)">
   <g clip-path="url(#c)">
    <path d="m362.62 425.98c-67.094-17.977-131.5-48.188-155.2-79.57-7.1133 13.355-12.488 24.273-15.559 30.703-10.062 37.547 70.965 80.301 156.22 103.14 85.273 22.848 176.8 26.332 187.17-13.055 0.48438-6.6133 1.1914-18.168 1.6641-32.586-36.148 15.383-107.16 9.3516-174.29-8.6367z"/>
   </g>
  </g>
  <g clip-path="url(#b)">
   <g clip-path="url(#a)">
    <path d="m556.99 394.71c0.035157 3.2969 0.10156 6.4609 0.11719 9.8555l0.60156-0.26562-1.0625 30.949c-0.51953 14.754-1.168 26.551-1.6562 33.324l-0.015625 1.8945-0.48047 1.7969c-3.418 12.75-11.988 23.402-24.809 30.84-50.574 29.348-155.71 4.5078-186.74-3.8086-87.926-23.559-185.25-71.047-170.17-127.31l0.47656-1.7734 0.78906-1.6445c3.1562-6.5938 8.6602-17.766 15.945-31.457l14.539-27.277 0.37109 0.52734c1.7227-2.9922 3.4102-5.7852 5.125-8.6797-40.785 10.992-67.828 32.02-75.352 60.094-17.18 64.117 69.824 141.28 198.08 175.65 128.26 34.367 242.18 11.043 259.36-53.074 7.5352-28.035-5.3398-59.738-35.121-89.637z"/>
   </g>
  </g>
 </g>
</svg>
