<?xml version="1.0" encoding="UTF-8"?>
<svg width="700pt" height="700pt" version="1.1" viewBox="0 0 700 700" xmlns="http://www.w3.org/2000/svg">
 <path d="m210 210h325.22l11.668-46.668h-290.22v-46.664h320.13c3.5469 0 7.0469 0.80859 10.234 2.3633s5.9766 3.8164 8.1602 6.6133c2.1836 2.7969 3.6953 6.0547 4.4336 9.5234 0.73438 3.4688 0.66406 7.0625-0.19531 10.504l-58.332 233.33c-1.2656 5.043-4.1797 9.5234-8.2812 12.723-4.0977 3.2031-9.1523 4.9414-14.355 4.9414h-331.8c-6.1914 0-12.125-2.4609-16.5-6.8359s-6.8359-10.312-6.8359-16.5v-280h-46.664v-46.664h70c6.1875 0 12.121 2.457 16.496 6.832 4.3789 4.375 6.8359 10.312 6.8359 16.5zm0 326.67c-12.375 0-24.246-4.918-33-13.672-8.75-8.75-13.668-20.621-13.668-32.996s4.918-24.246 13.668-32.996c8.7539-8.7539 20.625-13.672 33-13.672s24.246 4.918 33 13.672c8.75 8.75 13.668 20.621 13.668 32.996s-4.918 24.246-13.668 32.996c-8.7539 8.7539-20.625 13.672-33 13.672zm280 0c-12.375 0-24.246-4.918-32.996-13.672-8.7539-8.75-13.672-20.621-13.672-32.996s4.918-24.246 13.672-32.996c8.75-8.7539 20.621-13.672 32.996-13.672s24.246 4.918 32.996 13.672c8.7539 8.75 13.672 20.621 13.672 32.996s-4.918 24.246-13.672 32.996c-8.75 8.7539-20.621 13.672-32.996 13.672z"/>
</svg>
